<?xml version="1.0" standalone="no"?> 
<!DOCTYPE svg PUBLIC "-//W3C//DTD SVG 1.1//EN" "http://www.w3.org/Graphics/SVG/1.1/DTD/svg11.dtd" >
<svg xmlns="http://www.w3.org/2000/svg">
<defs>
  <font id="icons" horiz-adv-x="1009.01">
    <font-face font-family="icons"
      units-per-em="512" ascent="448"
      descent="64" />
    <missing-glyph horiz-adv-x="0" />
    <glyph glyph-name="bullet"
      unicode="&#xF101;"
      horiz-adv-x="512" d=" M0 448H512V-64H0z" />
    <glyph glyph-name="chevron-down"
      unicode="&#xF102;"
      horiz-adv-x="731.4285714285713" d=" M731.4285714285713 448V228.57142857142858L365.71428571428567 -64L0 228.57142857142858V448L365.71428571428567 155.42857142857144L731.4285714285713 448z" />
    <glyph glyph-name="chevron-large"
      unicode="&#xF103;"
      horiz-adv-x="384.3847619047619" d=" M0 448H104.42666666666666L305.5238095238095 191.42857142857144L104.42666666666666 -64H0L201.14285714285714 191.42857142857144L0 448z" />
    <glyph glyph-name="chevron-left"
      unicode="&#xF104;"
      horiz-adv-x="307.2" d=" M159.2832 191.98293333333334L307.2 -64H147.9168L0 191.98293333333334L147.9168 448H307.2L159.2832 191.98293333333334z" />
    <glyph glyph-name="chevron-right"
      unicode="&#xF105;"
      horiz-adv-x="307.2" d=" M0 448H159.2832L307.2 191.98293333333334L159.2832 -64H0L147.9168 191.98293333333334L0 448z" />
    <glyph glyph-name="chevron-up"
      unicode="&#xF106;"
      horiz-adv-x="731.4285714285713" d=" M365.71428571428567 228.57142857142858L0 -64V155.42857142857144L365.71428571428567 448L731.4285714285713 155.42857142857144V-64L365.71428571428567 228.57142857142858z" />
    <glyph glyph-name="close"
      unicode="&#xF107;"
      horiz-adv-x="512" d=" M451.7701818181818 448L512 387.74690909090907L60.22981818181819 -64L0 -3.7818181818182097L451.7701818181818 448z M60.22981818181819 448L512 -3.7818181818182097L451.7701818181818 -64L0 387.74690909090907L60.22981818181819 448z" />
    <glyph glyph-name="cog"
      unicode="&#xF108;"
      horiz-adv-x="512" d=" M512 160.5003636363636V224.50036363636363L435.5025454545455 256.3607272727272C433.3614545454546 262.3650909090909 431.1156363636364 268.17163636363637 428.3694545454546 273.8734545454545L459.2756363636364 350.7432727272727L413.9985454545455 395.99709090909084L337.79200000000003 364.62545454545455C331.99709090909096 367.4414545454545 326.0625454545455 369.8036363636363 319.9301818181819 372.00290909090904L287.4996363636364 448H223.49963636363637L191.872 372.25890909090907C185.49527272727275 370.0014545454545 179.3629090909091 367.6392727272727 173.312 364.7418181818182L97.2450909090909 395.31054545454543L52.00290909090909 350.06836363636364L83.0138181818182 274.688C80 268.4974545454545 77.57963636363637 262.1905454545455 75.25236363636364 255.68581818181818L0 223.49963636363637V159.49963636363634L75.31054545454546 128.11636363636364C77.62618181818182 121.61163636363636 80.11636363636364 115.31636363636363 83.1069090909091 109.11418181818186L52.67781818181818 33.24509090909089L97.91999999999999 -12.008727272727299L173.48654545454545 19.130181818181768C179.56072727272726 16.24436363636363 185.75127272727272 13.928727272727201 192.11636363636362 11.741090909090929L224.50036363636363 -64H288.50036363636366L320.16290909090907 12.136727272727228C326.24872727272725 14.382545454545436 332.25309090909093 16.74472727272729 338.0014545454546 19.50254545454544L414.7549090909091 -11.252363636363611L460.0087272727273 34.00145454545458L428.4858181818182 110.35927272727275C431.18545454545455 116.1076363636364 433.3498181818182 121.92581818181822 435.49090909090904 127.86036363636373L512 160.5003636363636zM255.49963636363637 80.48872727272726C193.9549090909091 80.48872727272726 144 130.43200000000002 144 192S193.9549090909091 303.51127272727274 255.49963636363637 303.51127272727274C317.0792727272728 303.51127272727274 367.0109090909091 253.5563636363636 367.0109090909091 192S317.0676363636364 80.48872727272726 255.49963636363637 80.48872727272726z" />
    <glyph glyph-name="device-access"
      unicode="&#xF109;"
      horiz-adv-x="374.85714285714283" d=" M0 448H374.85714285714283V-64H0z M174.38147017142856 411.42857142857144L91.46764617142857 411.42856813714286C66.19876288 411.4285699657143 45.71428571428571 390.98240393142856 45.71428571428571 365.75350665142855L45.71428571428571 63.96077897142857C45.71428571428571 38.735136914285704 66.09776959999999 18.285714285714334 91.40938989714284 18.285714285714334L283.44775314285715 18.285714285714334C308.6844617142857 18.285714285714334 329.1428571428571 38.73188205714291 329.1428571428571 63.96077897142857L329.1428571428571 365.75350665142855C329.1428571428571 390.9791483428571 308.68710491428567 411.42857142857144 283.40233417142855 411.42857142857144L174.38147017142856 411.42857142857144z M164.57142857142856 -22.857142857142833C164.57142857142856 -35.48079428184667 174.80492000386755 -45.714285714285666 187.42857142857142 -45.714285714285666C200.05222285327528 -45.714285714285666 210.28571428571428 -35.48079428184667 210.28571428571428 -22.857142857142833C210.28571428571428 -10.233491432438996 200.05222285327528 0 187.42857142857142 0C174.80492000386755 0 164.57142857142856 -10.233491432438996 164.57142857142856 -22.857142857142833z" />
    <glyph glyph-name="diamond"
      unicode="&#xF10A;"
      horiz-adv-x="512" d=" M256 552.7272727272727H256V552.7272727272727H256z" />
    <glyph glyph-name="exclamation"
      unicode="&#xF10B;"
      horiz-adv-x="512" d=" M314.1818181818182 110.54545454545456H197.8181818181818V448H314.1818181818182V110.54545454545456zM314.1818181818182 -64H197.8181818181818V29.090909090909065H314.1818181818182V-64z" />
    <glyph glyph-name="google-dev"
      unicode="&#xF10C;"
      horiz-adv-x="512" d=" M219.42690909090908 5.818181818181813H105.65818181818182L0 192L105.65818181818182 378.1818181818182H219.42690909090908L113.76872727272726 192L219.42690909090908 5.818181818181813z M292.5730909090909 378.1818181818182H406.3418181818182L512 191.97672727272726L406.3418181818182 5.818181818181813H292.5730909090909L398.2312727272727 191.97672727272726L292.5730909090909 378.1818181818182z" />
    <glyph glyph-name="guides"
      unicode="&#xF10D;"
      horiz-adv-x="512" d=" M34.90909090909091 448V-64H477.0909090909091V448H34.90909090909091zM453.8181818181818 -40.72727272727275H58.18181818181819V424.72727272727275L453.8181818181818 424.75054545454543V-40.72727272727275z M93.0909090909091 354.9090909090909H418.90909090909093V308.3636363636364H93.0909090909091z M93.0909090909091 250.1818181818182H418.90909090909093V203.63636363636363H93.0909090909091z M93.0909090909091 145.45454545454544H372.3636363636364V98.90909090909088H93.0909090909091z" />
    <glyph glyph-name="hash"
      unicode="&#xF10E;"
      horiz-adv-x="512" d=" M262.76072727272725 80.26763636363637H206.16145454545455L182.60945454545453 -63.83709090909099H112.66327272727274L136.21527272727272 80.26763636363631H58.18181818181819V144.59345454545445H146.75781818181818L162.23418181818184 237.40509090909083H84.54981818181818V301.7076363636363H172.77672727272727L197.02690909090907 447.9301818181818H266.6123636363636L242.72290909090907 301.7076363636363H299.31054545454543L323.56072727272726 447.9301818181818H393.5069090909091L369.2567272727273 301.7076363636363H450.46690909090916V237.40509090909083H358.7141818181819L343.26109090909097 144.59345454545445H423.7498181818182V80.26763636363631H332.7185454545455L309.1665454545455 -63.83709090909099H239.2203636363637L262.76072727272725 80.26763636363637zM216.704 144.6050909090909H273.29163636363637L288.76800000000003 237.41672727272726H232.1687272727273L216.704 144.6050909090909z" />
    <glyph glyph-name="introduction-to-media"
      unicode="&#xF10F;"
      horiz-adv-x="512" d=" M0 -23.27272727272731L116.36363636363637 267.6363636363636L349.0909090909091 -23.27272727272731z M236.29963636363635 154.85672727272726L349.0909090909091 -23.27272727272731L512 -23.27272727272731L395.6363636363636 372.3636363636364z M139.63636363636363 349.0909090909091C139.63636363636363 316.9579781916629 165.68525091893565 290.9090909090909 197.8181818181818 290.9090909090909C229.951112717428 290.9090909090909 256 316.9579781916629 256 349.0909090909091C256 381.2238399901553 229.951112717428 407.27272727272725 197.8181818181818 407.27272727272725C165.68525091893565 407.27272727272725 139.63636363636363 381.2238399901553 139.63636363636363 349.0909090909091z" />
    <glyph glyph-name="lessons"
      unicode="&#xF110;"
      horiz-adv-x="512" d=" M34.90909090909091 448V-64H477.0909090909091V448H34.90909090909091zM453.8181818181818 -40.72727272727275H58.18181818181819V424.72727272727275L453.8181818181818 424.75054545454543V-40.72727272727275z M93.0909090909091 354.9090909090909H418.90909090909093V308.3636363636364H93.0909090909091z M93.0909090909091 250.1818181818182H418.90909090909093V203.63636363636363H93.0909090909091z M93.0909090909091 145.45454545454544H372.3636363636364V98.90909090909088H93.0909090909091z" />
    <glyph glyph-name="menu"
      unicode="&#xF111;"
      horiz-adv-x="691.2" d=" M0 448H691.2V345.6H0z M0 243.2H691.2V140.79999999999995H0z M0 38.39999999999998H691.2V-64H0z" />
    <glyph glyph-name="minus"
      unicode="&#xF112;"
      horiz-adv-x="512" d=" M0 226.9090909090909H512V157.09090909090907H0V226.9090909090909z" />
    <glyph glyph-name="monetization"
      unicode="&#xF113;"
      horiz-adv-x="257.0893617021277" d=" M181.61534474893617 136.32421582978725C170.46870277446808 147.47085889361705 152.18151772595743 157.39818811914893 126.75324078297872 166.10650199148932C91.5716520851064 176.7306436085106 65.01169282723404 190.92498301276595 47.072565814468085 208.68994287659572C29.133439019574467 226.45490491914893 20.164010049361703 250.1411630842553 20.164010049361703 279.74943090382976C20.164010049361703 308.4868671182978 28.39324345191489 331.9118804425532 44.85195688851064 350.02517373276595C61.310670325106386 368.13846680510636 83.99548808170213 379.0236961770213 112.90709079148935 382.68118800340426L112.90709079148935 440.41702127659573L154.1842928748936 440.41702127659573L154.1842928748936 382.4199398944681C183.44422792170215 378.2399492357447 206.12904567829787 365.7437059812766 222.239425906383 344.9308353906383C238.34980657021276 324.11796501787234 246.40487816170213 296.20823715404254 246.40487816170213 261.200814733617L195.2002468493617 261.200814733617C195.2002468493617 284.8874289021277 189.71409124765958 304.04543226553193 178.7416155506383 318.6754000068085C167.76913985361702 333.3053675302128 152.52981890723402 340.6202415931915 133.0231953974468 340.6202415931915C112.47157444085106 340.6202415931915 97.10163074723404 335.2647087387234 86.9129032987234 324.55348245787235C76.72417585021276 313.8422561770213 71.6298887080851 299.1689671353191 71.6298887080851 280.5331752306383C71.6298887080851 263.6390461004255 76.8983395131915 249.96719812085107 87.43539951659575 239.51722125617022C97.97245952 229.06724439148934 116.99984013617022 219.13991516595743 144.518112626383 209.73493705531914C180.22219993872338 198.23996187234044 206.6950775829787 183.91499928510638 223.9375403574468 166.75962226382978C241.1800009531915 149.60424306382976 249.80110270638298 126.3098531404255 249.80110270638298 96.87575094468087C249.80110270638298 66.91914948085105 240.83167319148936 43.10226900425528 222.89254617872342 25.424390536170222C204.95342003744682 7.746514246808545 180.30926107234043 -2.7468473191489693 148.95933047829786 -6.056005719148914L148.95933047829786 -56.215643506382946L107.9433765038298 -56.215643506382946L107.9433765038298 -6.3172542638297955C77.98677634723404 -3.182260834042552 53.42969899574468 7.746507710638241 34.271408258723405 26.469384714893636C15.113117369191489 45.19225954042548 5.88244296987234 72.66657824680851 6.579108101446808 108.89316439148939L7.101604319319149 110.1994049361702L56.73874606297873 110.1994049361702C56.73874606297873 83.37779690212761 63.4875882212766 64.26333576170214 76.98547494127659 52.85544415319151C90.48336166127659 41.44755254468083 107.07245099574469 35.7436917106383 126.75324078297872 35.7436917106383C149.22069100936173 35.7436917106383 166.76768049021277 41.099224782978695 179.39473582297873 51.8104499744681C192.02179115574467 62.521677344680825 198.33522415659573 77.36913048510638 198.33522415659573 96.35325385531917C198.33522415659573 111.85405385531914 192.76198672340425 125.17757494468088 181.61534474893617 136.32421582978725z" />
    <glyph glyph-name="multi-device-layouts"
      unicode="&#xF114;"
      horiz-adv-x="512" d=" M36.177454545454545 156.19490909090905L0 192L123.04290909090909 313.75127272727275L159.232 277.9461818181818z M123.04290909090909 70.24872727272725L0 192L36.177454545454545 227.80509090909092L159.232 106.0538181818182z M475.82254545454543 227.81672727272726L512 192.01163636363637L388.95709090909094 70.27199999999999L352.768 106.07709090909088z M388.95709090909094 313.75127272727275L512 192.01163636363637L475.82254545454543 156.20654545454545L352.768 277.9461818181818z M32.58181818181818 192L44.21818181818182 180.36363636363637L455.78472727272725 180.36363636363637L444.1483636363636 192z" />
    <glyph glyph-name="performance"
      unicode="&#xF115;"
      horiz-adv-x="512" d=" M221.0909090909091 37.387636363636375C221.0909090909091 18.107877824088632 236.7202414604523 2.47854545454544 256 2.47854545454544C275.2797585395477 2.47854545454544 290.90909090909093 18.107877824088632 290.90909090909093 37.387636363636375C290.90909090909093 56.66739490318412 275.2797585395477 72.29672727272725 256 72.29672727272725C236.7202414604523 72.29672727272725 221.0909090909091 56.66739490318412 221.0909090909091 37.387636363636375z M401.88509090909093 258.1410909090909L441.29745454545457 302.0567272727273C394.6705454545455 350.9876363636364 328.9250909090909 381.5330909090909 256 381.5330909090909C114.61818181818181 381.5330909090909 0 266.88 0 125.5330909090909C0 123.83418181818178 0.0930909090909091 122.17018181818179 0.128 120.47127272727272H6.481454545454546C13.393454545454546 239.58109090909088 111.88363636363637 334.11490909090907 232.72727272727275 334.11490909090907C300.032 334.11490909090907 360.3665454545455 304.6981818181818 401.88509090909093 258.1410909090909z M250.24 30.603636363636383L261.87636363636364 18.967272727272757L482.8392727272727 265.26254545454543L471.2029090909091 276.8989090909091z M444.20654545454545 188.8349090909091C451.1301818181818 170.93818181818182 456.01745454545454 152.02909090909094 458.1818181818182 132.27054545454547L511.3367272727273 112.15127272727273C511.5810909090909 116.608 512 121.00654545454546 512 125.5330909090909C512 165.2014545454545 502.8189090909091 202.6821818181818 486.7025454545455 236.20654545454545L444.20654545454545 188.8349090909091z" />
    <glyph glyph-name="plus"
      unicode="&#xF116;"
      horiz-adv-x="512" d=" M221.0909090909091 448H290.90909090909093V-64H221.0909090909091V448z M0 226.9090909090909H512V157.09090909090907H0V226.9090909090909z" />
    <glyph glyph-name="question"
      unicode="&#xF117;"
      horiz-adv-x="512" d=" M181.07345454545455 75.63636363636363C181.3061818181818 110.54545454545456 187.04290909090912 132.7476363636364 198.26036363636365 148.81745454545455C209.47781818181818 164.81745454545455 229.9810909090909 183.93600000000004 259.73527272727273 204.7767272727273C275.0836363636364 214.38836363636366 287.16218181818186 226.65309090909093 295.9709090909091 240.83781818181822C304.79127272727277 255.03418181818182 309.1898181818182 271.56945454545456 309.1898181818182 290.12945454545456C309.1898181818182 309.3643636363637 304.0581818181819 324.78254545454547 293.76000000000005 336.2327272727273C283.4385454545455 347.67127272727276 268.78836363636367 353.4545454545455 249.77454545454546 353.4545454545455C234.43781818181816 353.4545454545455 221.6145454545455 348.3927272727273 211.31636363636363 339.00218181818184C200.9949090909091 329.61163636363636 195.61890909090909 308.3636363636364 195.1650909090909 296.72727272727275H82.16436363636363L81.47781818181818 299.18254545454545C80.77963636363637 346.8218181818182 95.95345454545455 382.7781818181818 126.976 406.7141818181818C158.01018181818182 430.63854545454546 198.94690909090912 448 249.7629090909091 448C304.26763636363637 448 347.14763636363637 429.0327272727273 378.4029090909091 401.54763636363634C409.6581818181818 374.06254545454544 425.2741818181818 336.9774545454545 425.2741818181818 290.2574545454545C425.2741818181818 261.64363636363635 416.7447272727273 235.34545454545452 399.6974545454545 211.30472727272726C382.6385454545454 187.2523636363636 360.93672727272724 168.36654545454542 334.6036363636363 154.61236363636363C319.9418181818181 144.97745454545452 310.0392727272727 133.2945454545454 304.89599999999996 122.18181818181819C299.72945454545453 111.0690909090909 297.16945454545447 87.27272727272725 297.16945454545447 75.63636363636363H181.07345454545455zM290.90909090909093 -64H186.1818181818182V17.45454545454544H290.90909090909093V-64z" />
    <glyph glyph-name="slash"
      unicode="&#xF118;"
      horiz-adv-x="512" d=" M442.1818181818182 448H270.5105454545455L69.81818181818181 -64H241.37309090909093L442.1818181818182 448z" />
    <glyph glyph-name="star"
      unicode="&#xF119;"
      horiz-adv-x="512" d=" M181.5621818181818 161.80363636363637L0 213.56218181818184L36.18909090909091 321.61745454545456L212.98036363636365 246.86545454545453L199.92436363636367 448H318.58036363636364L303.80218181818185 242.8858181818182L476.416 315.83418181818183L512 206.67345454545452L328.69236363636367 154.92654545454542L450.26909090909095 3.2349090909090705L354.76945454545455 -64L252.13672727272728 104.36654545454547L150.66763636363635 -58.25163636363641L54.55127272727272 6.109090909090867L181.5621818181818 161.80363636363637z" />
    <glyph glyph-name="tick"
      unicode="&#xF11A;"
      horiz-adv-x="512" d=" M174.54545454545456 482.9090909090909H174.54545454545456V482.9090909090909H174.54545454545456z M558.5454545454545 -192H558.5454545454545V-192H558.5454545454545z" />
    <glyph glyph-name="tools"
      unicode="&#xF11B;"
      horiz-adv-x="512" d=" M448.07684480656246 974.2192944150919C445.7875954036218 1016.9227056849387 423.29984010236774 1057.8422874756816 384.1548353615138 1082.009224325548C345.0098306206598 1106.1761611754146 298.3516911713863 1107.9451544129822 259.14923172954224 1090.857463822777L259.14923172954224 1090.857463822777L374.79552764446856 1019.4609536218172L373.8607297848069 929.6708648278797L294.0075482359573 888.6025888817423L178.36125207116183 959.9991047471592C180.65049920322716 917.2956906915332 203.13825526980833 876.3761071058536 242.28326176607942 852.209169172246C281.4282665069335 828.0422323223795 328.0864055461609 826.2732384563305 367.2888653980511 843.3609296750171L431.179244361267 803.9169504511078L619.1357271927105 687.8783273577792C654.3817638686237 666.1184949553094 700.5962275347138 677.0545820064997 722.3720786171497 712.3265653428068L724.3245487104248 715.4891279601729C746.0943732066406 750.7513495816372 735.1641754132986 796.9802971253861 699.9237066012219 818.7366920978541L511.96722376977834 934.7753151911826L448.07684480656246 974.2192944150919L448.07684480656246 974.2192944150919zM693.027473053282 732.6270126119986C702.277540045694 747.6100416371762 697.6300563389894 767.2548462357568 682.6470273138116 776.5049132281688C667.663998288634 785.7549802205808 648.0191936900534 781.1074965138761 638.7691266976412 766.1244674886984C629.5190597052292 751.1414384635207 634.1665434119341 731.4966338649401 649.1495724371118 722.2465668725281C664.1326014622896 712.9964998801161 683.7774060608701 717.6439835868209 693.027473053282 732.6270126119986z" />
    <glyph glyph-name="user-input"
      unicode="&#xF11C;"
      horiz-adv-x="512" d=" M314.1818181818182 192C314.1818181818182 159.82545454545453 288.1396363636364 133.8181818181818 256 133.8181818181818C223.86036363636364 133.8181818181818 197.8181818181818 159.82545454545453 197.8181818181818 192C197.8181818181818 224.18618181818178 223.86036363636364 250.1818181818182 256 250.1818181818182C288.1396363636364 250.1818181818182 314.1818181818182 224.18618181818178 314.1818181818182 192z M256 320C326.5745454545455 320 384 262.5745454545455 384 192S326.5745454545455 64 256 64S128 121.4254545454545 128 192S185.42545454545456 320 256 320M256 343.27272727272725C172.43927272727274 343.27272727272725 104.72727272727273 275.57236363636366 104.72727272727273 192C104.72727272727273 108.39272727272726 172.4392727272727 40.72727272727269 256 40.72727272727269S407.2727272727273 108.39272727272726 407.2727272727273 192C407.2727272727273 275.57236363636366 339.5607272727273 343.27272727272725 256 343.27272727272725L256 343.27272727272725z M256 436.3636363636364C390.73745454545457 436.3636363636364 500.3636363636364 326.7490909090909 500.3636363636364 192C500.3636363636364 57.26254545454543 390.73745454545457 -52.363636363636374 256 -52.363636363636374C121.25090909090909 -52.363636363636374 11.636363636363637 57.26254545454543 11.636363636363637 192C11.636363636363637 326.7490909090909 121.25090909090909 436.3636363636364 256 436.3636363636364M256 448C114.5949090909091 448 0 333.4050909090909 0 192S114.5949090909091 -64 256 -64S512 50.594909090909084 512 192S397.4050909090909 448 256 448L256 448z" />
  </font>
</defs>
</svg>
